<svg xmlns="http://www.w3.org/2000/svg" width="16" height="14" fill="none"><path fill="#242424" fill-rule="evenodd" d="M12 .5c.406 0 .735.332.735.74v9.732l2.01-2.027a.73.73 0 0 1 1.04 0 .745.745 0 0 1 0 1.047l-3.265 3.291a.73.73 0 0 1-1.033.007l-.007-.007-3.265-3.291a.745.745 0 0 1 0-1.047.73.73 0 0 1 1.04 0l2.01 2.027V1.24c0-.41.33-.741.735-.741ZM4 13.5a.738.738 0 0 0 .735-.74V3.027l2.01 2.027a.73.73 0 0 0 1.04 0 .745.745 0 0 0 0-1.047L4.52.717a.73.73 0 0 0-1.04 0L.215 4.008a.745.745 0 0 0 0 1.047.73.73 0 0 0 1.04 0l2.01-2.027v9.731c0 .41.33.741.735.741Z" clip-rule="evenodd"/></svg>