<svg version="1.1" id="Layer_1" xmlns="http://www.w3.org/2000/svg" xmlns:xlink="http://www.w3.org/1999/xlink" x="0px" y="0px"
	 width="100%" viewBox="0 0 1024 448" enable-background="new 0 0 1024 448" xml:space="preserve">
<path fill="#000000" opacity="1.000000" stroke="none" 
	d="
M229.661072,254.592377 
	C227.129471,260.986084 224.520401,266.949188 222.440399,273.091431 
	C220.553940,278.662109 216.110703,276.699982 212.416367,277.085693 
	C209.106140,277.431335 206.874817,276.508636 205.515244,272.947937 
	C200.601013,260.077698 195.350540,247.335815 189.701859,233.234436 
	C184.554428,246.141037 179.846954,257.794403 175.261795,269.495697 
	C172.358582,276.904663 168.513855,278.936401 160.735229,276.974060 
	C159.103165,276.562378 158.218323,275.608948 157.619247,274.089569 
	C148.394928,250.695099 139.132111,227.315765 129.917770,203.917358 
	C129.635239,203.199921 129.778534,202.314789 129.667480,200.692154 
	C135.814804,200.692154 141.745544,200.597260 147.670914,200.734436 
	C150.405212,200.797745 150.875839,203.322083 151.665222,205.283081 
	C155.644730,215.169113 159.571274,225.076431 163.533997,234.969238 
	C164.265900,236.796417 165.078659,238.591217 166.397675,241.669571 
	C169.860382,233.139099 172.888504,225.693268 175.905045,218.242752 
	C177.780090,213.611588 179.838531,209.041260 181.436829,204.315842 
	C182.629868,200.788559 185.141083,200.304688 188.117584,200.659164 
	C191.591263,201.072876 195.891602,198.807053 197.896057,204.110214 
	C201.367584,213.294662 205.162613,222.357147 208.846939,231.460663 
	C210.017044,234.351868 210.816422,237.430206 213.227890,240.458038 
	C217.050247,233.633041 219.115341,226.471741 222.012863,219.691986 
	C224.106033,214.794312 226.001755,209.806320 227.811768,204.795837 
	C228.846619,201.931183 230.456421,200.385239 233.687653,200.593201 
	C238.948776,200.931839 244.267975,199.744339 250.503418,201.108810 
	C243.509964,219.068222 236.661987,236.654007 229.661072,254.592377 
z"/>
<path fill="#000000" opacity="1.000000" stroke="none" 
	d="
M493.064941,236.253540 
	C493.379059,259.795349 475.150299,278.966156 452.506744,279.391907 
	C428.220581,279.848541 409.311096,262.304993 408.916016,238.236099 
	C408.547150,215.767227 408.940582,193.286636 408.843750,170.811859 
	C408.824341,166.308716 410.477051,164.650925 415.040863,164.761978 
	C429.954987,165.124908 429.295776,162.555237 428.505188,177.999527 
	C428.157318,184.794922 428.612610,191.632309 428.733704,198.450089 
	C428.757111,199.768387 428.829865,201.112869 430.044342,202.456039 
	C433.892639,201.229950 437.740570,199.685059 441.733795,198.784378 
	C464.690643,193.606339 490.347168,207.523346 493.064941,236.253540 
M430.552917,229.300247 
	C425.981903,241.589493 430.247864,253.315826 441.539154,258.261627 
	C449.747589,261.857086 457.850250,261.214142 465.003418,255.416962 
	C471.705322,249.985504 475.005157,243.087433 472.971069,234.288437 
	C470.813324,224.954254 464.438904,218.793076 455.501007,217.343124 
	C444.976593,215.635818 436.550262,219.501846 430.552917,229.300247 
z"/>
<path fill="#000000" opacity="1.000000" stroke="none" 
	d="
M357.637115,172.380951 
	C369.522919,186.794357 381.382812,200.770950 392.777771,215.116852 
	C402.269836,227.067139 404.235077,240.535919 397.974426,254.555542 
	C391.385345,269.310608 379.552124,277.860107 363.556610,279.196442 
	C337.601562,281.364838 317.265320,262.298981 317.768585,237.143967 
	C318.066406,222.257797 329.018921,207.556351 344.362915,201.536438 
	C347.130310,200.450699 349.980469,199.575851 353.652100,198.306427 
	C344.790863,187.468231 336.250977,177.023071 326.984650,165.689407 
	C335.751953,164.433121 343.344635,164.261566 350.790741,165.534042 
	C353.795013,166.047470 355.213104,169.852417 357.637115,172.380951 
M338.078339,244.240982 
	C340.944366,253.952026 347.733765,259.427734 357.476166,260.437286 
	C366.605896,261.383331 374.088531,257.440735 379.036407,249.620850 
	C383.979340,241.808807 382.707306,231.056122 376.444580,224.138077 
	C370.129059,217.161789 358.293976,214.905609 349.801056,219.058945 
	C340.380768,223.665787 335.917480,232.791962 338.078339,244.240982 
z"/>
<path fill="#000000" opacity="1.000000" stroke="none" 
	d="
M809.549316,263.480164 
	C798.158325,277.271454 783.801575,281.952606 766.913452,278.320923 
	C751.134949,274.927948 741.217407,264.801544 736.935242,249.420807 
	C729.165100,221.512009 753.239502,194.648712 781.883057,198.194412 
	C803.107544,200.821716 815.476013,216.352768 816.121765,238.512070 
	C816.263245,243.366455 813.470459,243.917923 809.762512,243.876358 
	C794.633240,243.706802 779.503540,243.494751 764.374146,243.503510 
	C761.765137,243.505020 758.003662,241.754623 756.727600,244.983429 
	C755.589417,247.863327 758.194092,250.559036 760.104858,252.875641 
	C767.883850,262.306946 785.130127,262.846893 794.690063,253.438614 
	C798.171265,250.012650 800.287842,250.479034 803.251221,253.454041 
	C805.120178,255.330322 807.345398,256.850647 809.402405,258.540924 
	C811.127502,259.958466 811.425842,261.504059 809.549316,263.480164 
M759.596985,226.438782 
	C760.434631,227.949600 761.888062,227.605225 763.143494,227.472382 
	C771.096863,226.630859 779.071533,227.222916 787.032471,227.018082 
	C788.771545,226.973343 790.709045,227.593826 792.441528,225.664337 
	C790.376526,219.993256 785.647095,217.892212 780.226013,217.349548 
	C771.984436,216.524506 764.148315,217.290985 759.596985,226.438782 
z"/>
<path fill="#000000" opacity="1.000000" stroke="none" 
	d="
M527.576538,255.464630 
	C538.643616,262.835571 550.707581,261.434723 559.267578,251.683624 
	C561.377747,249.279800 562.774536,249.298325 564.971802,251.185089 
	C567.748962,253.569794 570.670959,255.789734 573.582825,258.012207 
	C575.881165,259.766357 576.106689,261.375427 574.239807,263.834869 
	C564.200012,277.061218 545.731140,282.739166 528.819336,277.591400 
	C512.924072,272.753082 501.538696,258.008270 500.645447,241.213791 
	C499.765320,224.665283 506.348694,211.819382 520.704346,203.800934 
	C535.464417,195.556580 550.717529,195.326019 565.089355,205.035385 
	C574.804199,211.598618 579.436584,221.426697 580.301575,232.994659 
	C581.091553,243.559799 583.106812,243.361786 570.458069,243.453033 
	C555.810059,243.558670 541.167847,244.052872 526.515808,243.439758 
	C520.919556,243.205597 520.103699,244.857895 522.835754,249.923508 
	C523.953308,251.995651 525.371277,253.835007 527.576538,255.464630 
M524.524170,226.139450 
	C525.737244,227.941574 527.576233,227.027176 529.095825,227.047363 
	C536.416260,227.144653 543.739319,227.106934 551.060730,227.038498 
	C553.283020,227.017731 555.625244,227.562149 558.062134,226.237350 
	C555.245300,220.145630 550.340149,217.796387 544.447571,217.258072 
	C536.447021,216.527206 529.076782,217.672211 524.524170,226.139450 
z"/>
<path fill="#000000" opacity="1.000000" stroke="none" 
	d="
M845.939636,246.321594 
	C838.339294,244.954666 831.478333,242.921997 826.971069,236.607971 
	C819.021362,225.471451 822.614319,210.648071 834.892761,203.471344 
	C851.140564,193.974609 876.886353,197.062531 890.530212,210.060089 
	C892.185974,211.637482 892.536133,213.003067 890.998840,214.735275 
	C890.667114,215.109039 890.351196,215.496704 890.023926,215.874496 
	C887.409729,218.892181 885.341492,223.160004 882.038818,224.604050 
	C878.066711,226.340805 875.586914,221.044739 872.134888,219.313538 
	C864.462646,215.465851 856.759033,213.898361 848.540771,216.909927 
	C845.657532,217.966476 842.886780,219.584564 843.249146,223.289108 
	C843.584656,226.718384 846.662659,227.102982 849.202820,227.643677 
	C858.147949,229.547699 867.455017,229.128922 876.275085,232.003769 
	C885.508728,235.013443 891.505798,240.592651 892.500549,250.712189 
	C893.335999,259.211426 890.457947,266.155914 883.754150,271.300262 
	C866.963013,284.185486 837.088806,281.497162 822.536804,266.060577 
	C820.367920,263.759918 820.049194,262.046753 822.417542,259.794098 
	C824.585022,257.732544 826.681824,255.548264 828.501099,253.180832 
	C830.987915,249.944824 832.934692,250.372360 835.780701,252.989395 
	C844.190063,260.722321 854.072327,263.598450 865.330322,260.696594 
	C866.756653,260.328949 868.153198,259.670227 869.423523,258.911804 
	C871.525269,257.657074 873.106262,255.920700 872.702759,253.227783 
	C872.320984,250.681091 870.274048,249.548401 868.127747,249.222885 
	C860.896484,248.126114 853.625305,247.292557 845.939636,246.321594 
z"/>
<path fill="#000000" opacity="1.000000" stroke="none" 
	d="
M611.749634,212.383698 
	C618.957092,204.382599 627.786560,200.854446 638.135315,200.671463 
	C641.048645,200.619965 642.484558,201.628403 642.401367,204.679947 
	C642.301514,208.340225 642.244263,212.012253 642.424988,215.666519 
	C642.598022,219.165253 641.026184,220.181534 637.698914,220.380829 
	C630.970520,220.783920 624.545898,222.558838 619.056213,226.691559 
	C612.537537,231.598892 609.070618,238.134201 609.085632,246.402756 
	C609.100830,254.727982 608.958862,263.055603 609.123169,271.377502 
	C609.198242,275.181061 607.738953,276.671204 603.932861,276.898590 
	C589.944336,277.734344 590.091675,277.820862 589.507996,263.986542 
	C588.721436,245.343506 589.282898,226.698135 589.123718,208.054825 
	C589.061890,200.813431 589.302185,200.710068 596.287170,200.661362 
	C608.283569,200.577728 608.280701,200.577942 609.213379,212.794678 
	C609.247314,213.239960 609.447693,213.672531 610.023193,215.726822 
	C610.819031,214.104919 611.182068,213.365036 611.749634,212.383698 
z"/>
<path fill="#000000" opacity="1.000000" stroke="none" 
	d="
M647.854858,269.805908 
	C647.856567,248.531937 647.960632,227.731308 647.776001,206.933258 
	C647.734497,202.253174 649.109009,200.051453 654.009521,200.635849 
	C658.090027,201.122498 663.032532,198.963135 666.107361,201.656754 
	C669.243530,204.404129 666.381165,209.583740 667.735596,213.602905 
	C669.979980,213.522278 670.740417,211.598877 671.993042,210.438736 
	C678.752136,204.178604 686.636169,200.915924 695.900818,200.652710 
	C699.910095,200.538788 701.398621,202.143372 701.112732,205.907471 
	C701.087585,206.238281 701.122192,206.573181 701.110535,206.905533 
	C700.976318,210.718567 701.830505,214.946686 700.451965,218.239853 
	C698.707764,222.406586 693.620789,220.106049 690.098022,221.023849 
	C674.497559,225.088318 667.359253,233.810913 667.317505,249.820358 
	C667.298401,257.141815 667.162842,264.466888 667.351990,271.783295 
	C667.447388,275.474731 665.925049,276.957123 662.392029,276.870148 
	C659.731567,276.804688 657.060364,276.740417 654.407349,276.899841 
	C649.618958,277.187622 647.074219,275.422821 647.854858,269.805908 
z"/>
<path fill="#000000" opacity="1.000000" stroke="none" 
	d="
M309.331421,171.143173 
	C309.326477,204.569809 309.209839,237.516296 309.422424,270.460632 
	C309.455505,275.590454 307.817535,277.049042 302.883057,276.970520 
	C287.287262,276.722229 289.939148,277.737488 289.879028,263.811920 
	C289.746124,233.029831 289.925385,202.246185 289.727753,171.464767 
	C289.695923,166.509705 291.085693,164.301453 296.200867,164.839371 
	C298.669067,165.098953 301.203247,165.053253 303.680298,164.835663 
	C308.090179,164.448303 309.844879,166.394165 309.331421,171.143173 
z"/>
<path fill="#000000" opacity="1.000000" stroke="none" 
	d="
M257.839233,257.998474 
	C257.837646,240.836258 257.813751,224.173523 257.847839,207.510895 
	C257.861542,200.811874 258.048828,200.676834 264.446655,200.606262 
	C277.963593,200.457199 277.954132,200.457169 277.942810,213.997635 
	C277.927032,232.826431 277.809631,251.656418 278.002197,270.483185 
	C278.050995,275.254120 276.386261,276.993896 271.647614,276.937256 
	C255.350540,276.742401 258.149628,278.094025 257.848572,263.496765 
	C257.814209,261.831146 257.841522,260.164276 257.839233,257.998474 
z"/>
<path fill="#000000" opacity="1.000000" stroke="none" 
	d="
M727.077454,274.497833 
	C724.223877,276.840118 711.666504,277.661926 709.303467,276.126801 
	C707.800598,275.150421 707.827881,273.609650 707.826111,272.130463 
	C707.800232,249.852036 707.831299,227.573517 707.756714,205.295319 
	C707.745239,201.861298 709.177124,200.559830 712.543823,200.615204 
	C730.401672,200.908875 727.086914,198.187302 727.246765,214.701370 
	C727.438293,234.482635 727.217957,254.267899 727.077454,274.497833 
z"/>
<path fill="#000000" opacity="1.000000" stroke="none" 
	d="
M273.302582,190.704422 
	C265.056274,192.857529 259.593414,191.406235 255.994431,186.363129 
	C251.379669,179.896652 252.689667,171.676300 259.078613,167.009888 
	C265.787506,162.109772 274.565094,163.427719 279.363159,170.055542 
	C283.855286,176.260681 282.561615,184.022049 276.181946,188.962494 
	C275.402069,189.566422 274.505859,190.020111 273.302582,190.704422 
z"/>
<path fill="#000000" opacity="1.000000" stroke="none" 
	d="
M713.927612,191.406998 
	C707.324707,189.343628 703.517334,185.091965 703.294189,178.634293 
	C703.098022,172.958313 705.819702,168.423706 711.103027,165.711090 
	C716.668457,162.853653 722.064392,163.520905 726.798706,167.739182 
	C731.293640,171.744186 732.974365,178.344391 730.850830,183.651581 
	C728.748840,188.904648 723.474487,192.126038 717.281372,191.891754 
	C716.290405,191.854263 715.306335,191.634155 713.927612,191.406998 
z"/>
</svg>